<?xml version="1.0" encoding="UTF-8" standalone="no"?>
<!DOCTYPE svg PUBLIC "-//W3C//DTD SVG 1.1//EN" "http://www.w3.org/Graphics/SVG/1.1/DTD/svg11.dtd">
<svg width="100%" height="100%" viewBox="0 0 1024 1024" version="1.1" xmlns="http://www.w3.org/2000/svg" xmlns:xlink="http://www.w3.org/1999/xlink" xml:space="preserve" xmlns:serif="http://www.serif.com/" style="fill-rule:evenodd;clip-rule:evenodd;stroke-linejoin:round;stroke-miterlimit:2;">
    <path d="M546.297,515.08C546.293,519 546.293,522.452 546.293,526.305C549.37,524.725 551.184,521.849 553.571,519.677C555.427,517.987 553.88,516.363 553.175,514.725C547.459,501.443 537.945,490.503 530.677,478.213C514.62,451.056 493.386,428.021 473.62,403.77C467.729,396.543 461.807,388.842 459.718,379.216C459.362,377.576 458.449,375.838 460.681,374.992C462.618,374.258 464.407,374.742 465.176,376.87C471.149,393.403 483.167,405.756 494.014,418.959C509.759,438.123 524.93,457.615 538.038,478.852C547.315,493.882 556.413,508.935 564.627,524.551C566.417,527.954 570.48,530.063 569.785,534.866C572.701,534.642 574.964,531.034 577.03,533.491C580.185,537.243 576.462,541.381 576.761,545.842C581.59,546.136 582.429,548.624 579.847,552.686C578.569,554.695 579.744,556.613 580.458,558.406C585.512,571.085 590.553,583.771 595.823,596.36C597.705,600.855 598.013,605.922 601.861,609.819C603.399,611.377 602.324,615.276 603.001,617.968C605.025,626.025 607.089,634.079 609.241,642.096C616.538,669.279 617.251,696.949 616.155,724.788C616.046,727.578 615.111,730.331 614.616,733.111C614.034,736.384 611.74,739.567 614.299,743.037C614.722,743.611 614.237,744.976 613.969,745.917C609.292,762.318 608.425,779.142 608.358,796.055C608.355,796.867 608.332,798.086 608.811,798.43C613.856,802.046 610.908,806.626 610.831,811.083C610.655,821.318 614.256,830.382 620.955,838.269C627.666,846.17 635.982,851.216 645.373,855.694C657.877,861.656 670.805,865.423 684.165,868.24C687.132,868.866 690.221,870.454 693.27,868.18C693.687,867.869 694.641,867.922 695.174,868.172C709.057,874.678 723.933,873.655 738.62,873.862C763.467,874.212 788.311,873.024 812.71,868.489C838.005,863.788 863.405,860.657 889.042,860.625C911.08,860.598 932.992,862.991 952.915,873.832C958.878,877.077 962.728,881.76 964.513,888.893C967.236,899.777 966.906,910.661 967.043,921.629C967.093,925.673 965.698,928.825 962.521,931.108C952.373,938.402 942.059,945.479 930.466,950.321C923.586,953.194 916.372,952.789 909.357,950.776C891.444,945.637 872.952,945.049 854.593,943.152C840.721,941.719 827.009,938.802 813.17,936.965C794.72,934.516 776.42,931.008 757.729,930.201C745.441,929.67 733.178,928.311 720.854,928.437C704.881,928.599 688.929,929.229 672.974,930.127C657.32,931.008 641.731,929.057 626.116,928.044C611.476,927.094 597.017,924.83 582.509,923.008C571.82,921.666 561.295,918.933 550.743,916.609C530.292,912.106 509.887,907.389 489.433,902.899C482.099,901.289 474.557,901.305 467.094,900.851C464.771,900.71 462.613,900.818 461.883,898.208C461.209,895.795 461.907,894.02 464.781,893.497C466.361,893.209 466.526,891.798 466.452,890.326C465.153,864.414 463.556,838.527 458.595,812.996C457.936,809.609 456.339,806.399 455.117,803.129C454.192,800.653 452.471,799.955 449.94,800.808C446.163,802.08 442.359,803.284 438.528,804.382C433.99,805.683 435.215,809.247 435.576,812.185C436.407,818.952 436.992,825.695 437.244,832.531C437.737,845.919 430.833,853.925 419.673,859.494C410.136,864.254 400.654,869.136 391.59,874.761C386.965,877.631 382.981,881.232 379.454,886.262C385.848,887.003 390.968,882.901 396.767,884.419C394.535,889.436 382.319,893.92 377.67,891.846C380.192,898.854 381.301,899.276 388.128,897.039C391.422,895.959 394.926,895.493 398.359,894.879C399.46,894.682 400.856,894.581 401.369,895.974C402,897.692 400.615,898.328 399.417,898.912C397.822,899.689 395.878,899.838 394.501,901.826C402.741,903.467 410.819,904.308 418.917,903.464C423.319,903.005 427.541,903.796 431.84,903.997C434.244,904.109 436.913,905.046 436.64,907.955C436.359,910.95 433.413,910.536 431.413,910.205C419.192,908.184 406.797,910.202 394.548,908.384C388.345,907.464 382.487,905.825 377.301,902.463C370.122,897.808 368.686,889.042 374.168,882.528C379.42,876.289 385.202,870.549 392.716,866.82C401.811,862.305 410.726,857.429 419.779,852.827C428.601,848.343 431.578,840.655 431.696,831.424C431.859,818.714 429.921,806.232 427.235,793.857C424.163,779.702 420.768,765.61 421.663,750.927C421.997,745.452 423.162,740.032 422.709,734.501C422.549,732.549 422.874,730.623 425.39,730.572C428.204,730.516 428.553,732.587 428.359,734.733C427.58,743.355 426.829,751.973 427.013,760.649C427.282,773.394 431.219,785.44 433.391,797.819C438.139,797.932 442.264,797.576 446.069,795.719C449.592,793.999 453.156,794.258 456.804,794.942C459.359,795.422 460.711,796.801 461.409,799.456C465.849,816.365 467.938,833.564 469.622,850.958C470.891,864.056 470.62,877.194 472.118,890.241C472.408,892.763 472.717,894.588 475.941,894.924C497.536,897.174 518.28,903.59 539.43,908.037C547.675,909.77 555.862,911.986 564.643,912.758L564.643,899.131C561.875,899.942 558.894,900.121 558.071,896.216C557.44,893.217 559.623,890.524 559.55,886.811C556.844,888.809 554.881,891.768 551.516,889.727C549.344,888.41 549.151,886.74 550.167,878.203C548.289,879.269 546.72,881.272 544.428,879.594C542.012,877.825 542.092,875.391 542.574,872.841C534.459,872.872 533.877,871.799 535.351,859.695C530.108,861.653 527.368,860.894 526.222,857.093C525.044,853.183 527.676,849.665 527.523,845.322C524.085,846.746 520.575,850.957 517.391,845.741C515.173,842.107 518.506,838.291 517.49,834.442C515.22,834.208 514.43,836.201 513.074,837.22C511.299,838.553 509.593,839.945 507.217,838.72C504.939,837.545 504.533,835.413 504.707,833.168C504.922,830.385 505.341,827.617 505.728,824.381C502.368,825.691 500.085,829.977 496.283,827.367C491.991,824.422 495.417,820.343 495.183,817.534C494.15,818.32 492.626,819.395 491.199,820.587C489.656,821.877 488.265,823.452 485.943,822.344C483.975,821.405 483.623,819.676 483.673,817.739C483.694,816.91 483.676,816.079 483.676,815.294C482.809,814.514 482.52,815.381 482.134,815.734C480.564,817.166 479.211,819.225 476.629,817.629C474.405,816.254 475.25,814.296 475.488,812.287C476.285,805.544 478.374,798.918 477.424,791.999C477.315,791.206 477.595,790.348 477.75,789.53C478.121,787.576 479.309,786.518 481.288,786.967C483.163,787.393 483.35,788.969 483.01,790.553C482.034,795.11 481.58,799.711 481.344,805.734C482.973,803.241 483.883,801.777 484.865,800.365C485.941,798.82 487.167,797.215 489.332,798.21C491.32,799.124 491.422,801.07 491.163,802.967C490.723,806.185 490.212,809.394 489.633,813.255C493.289,810.656 494.927,807.309 497.216,804.536C498.344,803.169 499.634,801.93 501.438,802.611C503.586,803.421 503.513,805.487 503.142,807.319C502.39,811.042 501.467,814.731 500.526,818.816C503.113,817.821 504.032,815.811 505.377,814.244C506.456,812.987 507.439,811.483 509.491,812.259C511.674,813.085 512.557,814.723 512.269,816.985C511.704,821.42 511.097,825.849 510.432,830.856C513.914,829.048 515.808,826.151 518.263,823.913C519.775,822.533 520.942,820.206 523.663,821.466C526.66,822.854 525.582,825.438 525.218,827.594C524.533,831.643 523.539,835.641 522.499,840.469C525.531,838.672 527.047,836.501 528.742,834.549C530.02,833.078 531.399,832.764 533.171,833.629C535.003,834.523 535.405,835.936 535.005,837.765C533.94,842.625 532.879,847.486 532.431,852.854C533.783,851.181 535.185,849.545 536.471,847.823C537.616,846.292 538.735,844.729 540.938,845.794C542.87,846.728 543.313,848.471 542.929,850.453C542.089,854.783 541.214,859.106 540.25,863.955C542.483,862.762 543.059,861.173 543.79,859.736C544.631,858.084 545.293,856.076 547.741,857.088C550.06,858.046 551.723,859.486 550.666,862.483C550.124,864.018 550.019,865.707 549.699,867.423C551.831,867.826 552.171,865.226 554.882,865.415C561.85,868.889 555.071,875.018 556.534,880.106C558.313,879.478 559.496,877.922 560.902,876.664C562.479,875.253 563.94,873.274 566.474,874.9C568.937,876.481 568.064,878.549 567.319,880.656C566.555,882.819 565.94,885.036 565.188,887.459C570.733,885.743 573.099,887.702 572.296,892.879C571.447,898.35 568.852,903.715 571.719,909.404C572.147,910.254 571.091,911.853 570.381,914.257C603.916,921.124 637.608,922.765 671.93,924.613C670.37,915.38 679.48,915.281 682.361,910.073C681.312,907.597 678.778,907.94 676.924,907.108C674.8,906.155 673.04,904.84 673.287,902.315C673.52,899.926 675.548,899.312 677.583,898.807C682.16,897.671 687.097,897.934 692.046,895.233C687.421,893.662 683.334,893.409 679.208,893.397C676.522,893.39 673.911,892.952 673.85,889.603C673.787,886.118 676.493,885.92 679.142,885.86C681.147,885.815 683.116,885.491 685.031,884.488C682.086,883.596 677.962,886.621 676.325,882.875C673.648,876.75 682.178,878.315 683.207,873.325C671.575,872.635 661.335,866.29 649.35,866.568C645.823,866.65 641.235,865.731 638.675,861.69C636.869,858.841 633.932,857.063 631.119,855.252C615.407,845.135 605.48,831.325 603.719,812.3C603.694,812.03 603.385,811.786 603.208,811.53C594.205,817.826 593.906,813.757 593.339,806.253C588.799,807.375 584.074,812.648 579.723,806.516C576.621,802.144 578.473,796.895 578.042,791.859C574.765,792.988 572.612,795.408 569.968,797.051C565.129,800.061 561.695,798.709 560.421,793.112C559.248,787.957 561.535,782.905 560.67,777.553C557.085,781.116 553.123,784.419 548.098,786.198C541.51,788.529 536.378,785.336 535.921,778.277C535.707,774.983 535.884,771.664 535.884,768.072C534.213,769.389 532.727,770.654 531.144,771.784C529.173,773.188 526.919,774.257 524.642,772.874C522.297,771.448 521.667,768.937 521.957,766.304C522.317,763.04 522.827,759.793 523.409,755.538C519.563,759.359 516.4,762.551 512.48,764.697C509.616,766.265 506.669,768.295 503.181,766.107C499.892,764.044 500.142,760.909 500.562,757.655C500.944,754.693 500.616,751.691 501.281,748.71C501.876,746.038 501.927,743.245 502.269,740.032C497.917,743.252 495.288,747.355 491.985,750.809C490.181,752.696 488.622,755.384 485.409,754.25C481.766,752.966 482.84,749.653 482.796,746.949C482.719,742.194 482.775,737.436 482.775,731.175C479.993,734.695 478.233,737.037 476.345,739.271C475.047,740.806 473.63,742.376 471.252,741.336C468.81,740.269 469.226,738.302 469.578,736.239C470.911,728.425 473.535,720.796 472.206,712.607C471.844,710.376 473.915,708.542 476.527,708.887C479.136,709.231 479.504,711.338 479.062,713.462C477.916,718.98 476.626,724.468 476.082,730.454C477.423,728.58 478.7,726.656 480.122,724.847C481.38,723.246 482.934,721.666 485.157,722.4C487.514,723.179 488.144,725.327 488.145,727.645C488.148,733.957 488.146,740.269 488.146,746.875C492.62,743.407 495.52,738.684 499.518,735.062C501.437,733.323 502.917,729.666 506.363,731.66C509.426,733.431 508.167,736.568 507.695,739.359C506.837,744.436 506.064,749.531 505.433,754.641C505.179,756.701 505.391,758.818 505.391,761.301C510.607,760.258 513.249,756.918 516.28,754.236C518.522,752.252 520.4,749.834 522.735,747.983C525.992,745.401 528.789,746.788 529.292,750.921C529.899,755.905 527.56,760.649 528.055,766.125C531.378,764.131 533.682,761.532 536.087,759.065C537.522,757.593 538.93,756.091 541.245,757.259C543.542,758.417 543.158,760.339 542.868,762.436C542.23,767.04 541.737,771.673 541.398,776.309C541.028,781.359 543.207,782.715 547.735,780.164C552.119,777.693 555.711,774.223 559.119,770.52C560.559,768.955 561.791,766.202 564.765,767.605C567.931,769.098 567.068,771.934 566.901,774.596C566.543,780.317 564.729,785.966 565.605,792.165C569.966,791.452 572.061,788.15 574.943,786.108C577.163,784.535 578.895,781.429 582.207,783.036C585.574,784.671 583.973,788.014 584.154,790.68C584.432,794.754 582.299,798.809 583.969,803.263C588.155,802.586 590.577,799.565 593.322,797.04C595.075,795.427 596.403,792.698 599.53,794.29C602.275,795.687 601.5,798.164 601.277,800.464C601.217,801.081 601.365,801.719 601.521,803.576C603.417,799.615 603.104,796.481 602.764,793.63C602.059,787.715 603.224,782.036 604.006,776.281C604.529,772.427 606.831,768.275 601.53,765.528C599.967,764.718 600.99,762.494 601.332,760.869C603.042,752.756 605.902,744.855 605.932,735.659C603.773,737.853 602.048,739.706 600.214,741.444C597.906,743.632 595.537,746.05 591.931,744.742C588.089,743.348 586.947,739.976 586.804,736.33C586.608,731.338 586.758,726.332 586.696,721.334C586.68,720.056 587.111,718.682 586.019,717.294C582.826,718.766 581.452,721.878 579.554,724.478C578.067,726.514 576.689,728.988 573.623,727.792C570.396,726.532 570.007,723.698 570.598,720.68C571.52,715.981 572.528,711.299 573.677,705.755C570.107,709.093 567.339,711.905 564.329,714.426C561.889,716.468 559.087,718.469 555.73,716.645C552.335,714.8 551.936,711.319 552.138,707.914C552.362,704.116 552.935,700.339 553.475,695.483C550.415,698.357 548.055,700.641 545.197,702.238C543.032,703.448 540.824,703.91 538.603,702.45C536.532,701.088 536.154,698.948 536.351,696.715C536.613,693.744 537.05,690.789 537.512,687.002C534.942,688.984 532.789,690.577 530.713,692.264C528.806,693.813 526.817,695.158 524.436,693.466C521.986,691.725 521.417,689.159 522.167,686.34C523.311,682.037 524.681,677.779 524.457,672.666C520.628,675.398 517.323,678.038 513.739,680.218C511.163,681.785 508.449,684.215 505.058,681.882C501.836,679.666 502.559,676.234 502.848,673.183C503.24,669.058 504.185,664.984 503.453,659.721C500.801,662.237 498.642,664.343 496.419,666.377C494.053,668.54 491.524,671.027 488.1,668.893C485.001,666.961 485.653,663.844 486.439,660.786C487.292,657.47 487.839,654.075 488.192,650.524C485.424,654.353 482.399,657.851 478.841,660.838C477.004,662.38 474.976,663.648 472.514,662.071C470.31,660.658 470.345,658.464 470.769,656.263C471.518,652.369 472.363,648.494 473.247,644.233C470.898,647.051 468.832,649.589 466.698,652.069C465.186,653.827 463.316,655.045 461.006,653.787C458.739,652.553 458.69,650.466 459.278,648.126C460.49,643.299 461.87,638.484 461.791,632.905C458.6,635.634 457.141,639.077 455.418,642.312C454.219,644.564 452.762,646.421 449.959,645.093C447.462,643.909 447.601,641.778 448.614,639.549C449.746,637.058 449.878,634.432 449.532,631.144C447.929,633.146 446.226,634.182 444.25,632.623C442.322,631.102 443.012,629.186 443.46,627.147C444.484,622.49 446.293,617.946 445.192,612.944C444.76,610.985 445.359,608.804 448.197,608.78C451.008,608.755 451.439,610.657 451.253,612.855C451.129,614.323 450.774,615.771 450.424,617.797C454.062,616.436 456.453,616.796 456.38,621.257C456.331,624.254 454.746,627.071 455.57,630.568C457.558,628.843 459.307,627.207 461.184,625.735C462.529,624.682 464.116,623.983 465.828,624.883C467.591,625.809 467.704,627.518 467.513,629.232C466.949,634.3 466.336,639.363 465.638,645.317C468.588,641.391 471.031,638.102 473.518,634.847C474.722,633.273 475.954,631.176 478.321,632.524C480.345,633.677 480.119,635.823 479.684,637.9C478.53,643.405 477.475,648.93 476.26,655.057C479.157,654.093 480.184,651.95 481.56,650.269C483.353,648.081 484.923,645.707 486.769,643.568C488.329,641.762 489.719,638.76 492.686,640.115C495.542,641.42 494.438,644.609 494.199,646.89C493.682,651.813 492.624,656.679 491.688,662.152C496.331,660.107 498.788,656.117 502.446,653.71C503.971,652.706 505.335,651.209 507.367,652.274C509.296,653.286 509.277,655.21 509.35,657.07C509.597,663.386 508.281,669.578 507.574,676.216C511.953,675.66 514.664,672.989 517.554,670.655C519.239,669.295 520.88,667.878 522.599,666.561C524.294,665.261 526.067,663.38 528.36,664.641C530.846,666.009 531.2,668.758 530.772,671.246C529.903,676.3 528.679,681.292 527.37,687.388C531.572,684.372 534.66,681.384 537.294,677.933C538.578,676.251 539.871,674.614 542.172,675.371C544.604,676.17 544.365,678.438 544.276,680.438C544.049,685.537 542.106,690.463 542.47,696.075C547.023,694.605 549.181,690.861 552.176,688.166C553.738,686.761 555.176,684.339 557.552,685.337C560.146,686.426 559.712,689.146 559.392,691.494C558.764,696.105 558.089,700.71 557.506,705.327C557.262,707.265 556.96,709.253 558.048,711.465C562.404,710.186 564.779,706.614 567.826,704.015C570.099,702.075 572.109,699.83 574.277,697.763C575.384,696.709 576.735,695.597 578.248,696.552C580.009,697.663 580.01,699.557 579.595,701.476C578.299,707.459 577.059,713.454 576.118,717.926C577.767,716.577 580.314,714.468 582.89,712.397C584.577,711.041 586.336,709.347 588.669,710.245C591.457,711.318 591.712,714.207 591.797,716.599C591.943,720.735 591.511,724.892 591.342,729.041C591.301,730.039 591.289,731.044 591.351,732.04C591.502,734.458 590.495,737.768 593.202,738.793C596.199,739.928 597.708,736.644 599.399,734.744C602.497,731.263 605.289,727.509 608.427,724.068C610.873,721.386 610.371,718.081 610.522,715.081C611.897,687.769 608.669,660.862 601.373,634.608C599.786,628.894 597.37,623.287 596.561,616.792C591.616,618.11 585.855,624.052 583.495,614.531C575.895,618.007 575.282,617.05 576.524,603.738C574.588,604.664 573.785,606.535 572.516,607.962C571.276,609.356 569.895,610.764 567.801,609.739C565.578,608.651 565.538,606.649 566.044,604.568C566.771,601.579 567.541,598.599 568.443,595.018C566.181,597.058 564.546,598.676 562.759,600.104C560.911,601.581 558.838,602.017 556.808,600.404C554.879,598.871 554.497,596.833 555.226,594.555C556.38,590.95 557.563,587.354 559.178,582.385C554.88,586.046 551.734,588.837 548.462,591.472C546.601,592.971 544.469,594.202 542.121,592.397C539.823,590.63 540.334,588.289 541.218,586.03C543.099,581.225 544.563,576.351 544.387,570.895C541.585,570.623 540.385,572.647 538.874,574.008C536.527,576.121 534.366,578.449 531.944,580.469C530.267,581.866 528.217,583.027 526.017,581.522C523.981,580.13 523.889,578.029 524.177,575.711C524.559,572.636 526.028,569.683 525.397,565.849C522.698,568.166 520.383,570.213 518.001,572.18C516.163,573.697 514.192,575.14 511.702,573.591C509.034,571.93 509.395,569.257 510.042,566.857C511.3,562.192 512.386,557.565 511.491,552.667C507.387,556.608 503.389,560.495 499.333,564.32C497.378,566.165 495.249,568.237 492.323,566.755C489.367,565.258 490.545,562.36 490.892,560.016C491.693,554.614 492.743,549.249 493.958,542.363C489.208,547.645 485.45,551.908 481.589,556.075C479.917,557.88 478.134,560.263 475.272,558.848C472.1,557.28 473.106,554.353 473.846,551.797C475.32,546.701 476.574,541.586 476.576,535.441C472.818,538.229 470.535,541.412 467.981,544.325C466.779,545.695 465.619,547.146 464.218,548.287C462.706,549.517 460.777,549.872 459.119,548.635C457.604,547.504 457.736,545.821 458.231,544.077C460.002,537.841 461.479,531.557 460.289,524.391C455.644,525.35 453.162,528.658 450.421,531.629C448.496,533.715 447.004,537.712 443.477,535.766C440.056,533.878 441.845,530.211 442.543,527.171C443.323,523.771 444.066,520.356 444.617,516.914C445.048,514.217 446.482,512.996 449.074,513.554C451.94,514.17 451.416,516.391 450.821,518.339C450.199,520.376 449.326,522.337 448.148,525.414C451.135,523.345 453.212,521.883 455.315,520.457C457.79,518.778 460.626,517.869 463.34,519.19C466.196,520.58 465.744,523.857 465.726,526.348C465.696,530.642 464.985,534.932 464.459,540.248C467.473,536.977 469.888,534.244 472.43,531.636C474.333,529.683 476.594,527.797 479.462,529.027C482.425,530.297 481.552,533.275 481.331,535.652C480.904,540.254 480.212,544.831 479.566,549.917C482.992,548.093 484.789,545.186 486.901,542.574C488.364,540.764 489.993,539.082 491.629,537.423C493.394,535.633 495.355,533.462 498.067,534.965C500.624,536.383 499.489,539.171 499.147,541.342C498.192,547.395 496.992,553.41 496.573,560.081C499.577,556.926 502.558,553.749 505.595,550.627C506.986,549.197 508.396,547.759 509.962,546.536C511.539,545.304 513.355,544.118 515.444,545.318C517.293,546.38 517.419,548.343 517.246,550.195C516.741,555.623 516.123,561.041 515.483,567.091C520.087,564.076 523.112,560.172 526.337,556.514C527.746,554.915 529.213,553.244 531.327,554.552C533.191,555.705 533.204,557.745 532.461,559.901C530.904,564.42 530.384,569.138 529.992,574.34C534.513,571.996 536.867,567.822 540.983,565.845C546.989,562.96 549.243,564.326 549.341,570.988C549.415,576.038 547.422,580.694 546.539,586.49C551.651,583.457 554.507,579.209 557.957,575.572C559.837,573.59 561.131,569.295 564.795,571.403C567.96,573.224 565.48,576.617 564.94,579.18C563.995,583.664 562.563,588.046 561.066,593.444C564.796,591.002 566.875,588.427 569.11,586.022C570.162,584.89 571.369,583.855 573.008,584.346C574.942,584.925 575.099,586.707 575.301,588.393C575.696,591.696 573.572,594.412 573.049,597.622C573.456,597.515 573.77,597.528 573.92,597.378C576.138,595.163 577.359,590.433 581.353,592.158C585.078,593.767 582.907,598.104 583.154,601.256C583.227,602.188 582.763,603.163 582.472,604.439C585.328,602.803 586.409,599.842 588.645,598.02C589.957,596.951 589.497,595.644 588.983,594.371C584.061,582.178 579.369,569.884 574.06,557.863C572.653,554.678 570.153,551.956 570.221,548.05C567.512,548.471 565.605,551.879 563.121,549.401C560.292,546.579 562.196,543.132 562.534,539.747C561.075,539.264 560.68,540.777 559.796,541.213C558.083,542.059 556.417,542.813 554.669,541.468C553.196,540.335 552.86,538.835 553.284,537.01C553.926,534.243 553.941,531.431 553.418,528.015C551.481,529.503 549.876,530.838 548.167,532.021C546.278,533.329 544.214,533.919 542.125,532.462C540.26,531.159 540.016,529.323 540.34,527.147C540.901,523.385 541.206,519.584 541.683,515.211C538.578,516.446 537.616,518.932 536.195,520.975C534.697,523.127 532.859,525.131 530.016,523.927C526.935,522.622 528.614,520.051 528.937,517.842C529.531,513.774 529.962,509.682 530.599,504.469C528.23,506.692 526.623,508.27 524.938,509.762C523.333,511.183 521.397,511.968 519.46,510.743C517.659,509.604 517.873,507.699 518.324,505.791C519.196,502.109 519.916,498.391 521.018,493.182C517.641,496.713 515.387,499.262 512.917,501.581C511.486,502.926 509.699,504.382 507.57,503.341C505.142,502.154 505.521,499.683 505.821,497.576C506.297,494.225 508.009,491.044 507.309,486.691C504.617,489.853 502.373,492.459 500.165,495.094C499.05,496.425 497.869,497.684 495.95,496.912C494.167,496.196 493.755,494.546 493.653,492.811C493.404,488.553 496.339,484.959 496.093,480.193C494.231,482.796 492.614,485.15 490.895,487.427C489.79,488.892 488.481,490.679 486.446,489.928C484.122,489.07 483.584,486.643 483.805,484.468C484.173,480.86 484.963,477.295 485.707,472.942C482.071,476.023 481.099,479.999 478.782,483.028C477.38,484.862 476.063,487.344 473.255,486.179C470.436,485.011 470.524,482.243 470.918,479.696C471.576,475.447 472.853,471.283 472.738,465.852C469.62,470.44 468.545,475.085 465.574,478.613C463.963,480.526 462.505,483.142 459.558,481.628C457.028,480.328 456.955,477.794 457.484,475.068C459.133,466.576 460.568,458.042 461.349,449.413C461.482,447.943 461.876,446.495 460.866,444.315C457.215,447.682 455.596,451.741 454.304,455.868C452.856,460.495 451.076,464.971 449.001,469.33C448.113,471.194 446.782,472.887 444.319,471.933C442.146,471.091 442.229,469.187 442.557,467.284C442.953,464.995 443.341,462.704 443.802,460.008C439.231,458.711 439.991,455.684 440.888,451.997C442.495,445.392 443.504,438.636 444.62,431.919C445.058,429.284 445.984,427.408 449.01,427.705C452.437,428.041 452.148,430.623 451.88,432.959C450.921,441.317 450.197,449.707 448.549,458.003C450.536,453.216 452.017,448.234 454.826,443.895C456.774,440.887 458.822,436.769 463.188,438.309C467.346,439.775 466.336,444.141 465.949,447.524C464.967,456.085 463.721,464.616 463.059,473.439C465.956,467.994 468.803,462.522 471.775,457.118C472.841,455.18 473.644,452.201 476.73,453.405C479.645,454.542 479.173,457.26 478.753,459.851C477.912,465.03 477.274,470.242 477.16,475.682C479.163,472.501 481.112,469.285 483.189,466.153C484.55,464.1 485.923,461.305 488.876,462.226C492.24,463.275 491.232,466.599 491.165,469.131C491.093,471.878 489.809,474.564 490.683,478.024C492.404,475.854 493.798,474.076 495.214,472.316C496.419,470.818 497.857,469.535 499.897,470.37C501.896,471.188 502.196,473.165 502.05,475.021C501.803,478.16 501.318,481.28 500.812,485.39C503.093,483.043 504.885,481.275 506.586,479.424C507.969,477.919 509.273,476.251 511.635,477.31C513.932,478.34 513.593,480.33 513.578,482.422C513.553,485.894 511.684,489.179 512.604,493.072C515.785,492.144 517.266,489.353 519.497,487.583C521.004,486.387 522.572,485.207 524.447,486.073C526.394,486.972 526.463,489.09 526.25,490.902C525.832,494.454 525.156,497.976 524.424,502.515C526.551,500.243 528.06,498.752 529.423,497.138C530.666,495.668 532.16,495.209 533.878,495.864C535.598,496.521 535.744,498.229 535.591,499.678C535.106,504.278 535.699,508.932 534.377,513.832C538.255,511.908 539.361,506.105 544.251,507.563C547.579,508.555 545.942,512.13 546.297,515.08M947.027,934.5C954.87,929.435 962.348,924.1 962.236,913.329C962.145,904.624 959.607,896.608 955.791,887.945C953.156,891.528 949.631,892.004 947.117,894.281C955.071,898.636 955.407,900.059 950.344,906.622C955.378,912.606 954.883,913.642 944.325,919.179C944.378,920.86 945.831,921.667 946.694,922.82C949.124,926.066 948.527,928.535 945.127,930.68C940.775,933.426 934.332,933.397 933.483,940.706C930.067,938.257 926.557,936.882 927.107,933.115C927.656,929.354 931.58,929.753 934.325,928.951C937.074,928.147 940.183,928.261 942.325,925.799C940.779,923.378 938.339,923.108 936.23,922.22C934.038,921.297 932.671,919.583 932.901,917.172C933.145,914.613 935.203,914.422 937.324,914.143C940.121,913.776 942.862,912.988 946.471,912.196C943.169,909.93 939.18,910.668 938.782,906.52C938.298,901.467 943.664,903.15 945.699,900.592C942.356,899.805 939.275,899.179 936.256,898.334C934.433,897.823 933.662,896.352 933.765,894.471C933.866,892.64 935.049,892.018 936.68,891.627C939.102,891.046 941.501,890.322 943.847,889.484C945.974,888.725 947.176,887.284 946.343,884.843C945.051,881.054 946.99,879.874 950.923,880.078C939.781,872.555 927.587,870.153 915.204,868.3C910.775,867.638 906.546,866.893 902.043,868.893C899.188,870.161 898.825,874.086 895.189,873.745C897.143,879.041 897.143,879.041 890.154,883.517C897.735,889.544 897.703,889.982 889.172,894.718C889.753,897.304 893.152,899.642 890.146,902.74C888.004,904.948 884.714,905.145 882.49,907.218C888.674,913.028 888.368,914.618 880.516,917.523C877.411,918.672 874.247,919.662 871.132,920.716C870.694,922.479 872.66,924.659 870.229,925.734C867.933,926.749 865.97,925.505 864.328,924.065C861.067,921.204 862.186,917.239 866.548,915.683C870.023,914.444 873.959,914.652 877.781,912.331C875.568,911.651 873.967,911.253 872.438,910.667C870.293,909.843 868.554,908.581 868.894,905.904C869.216,903.377 871.328,903.585 873.09,903.291C876.715,902.686 880.334,902.063 883.43,899.543C881.66,898.266 879.937,898.394 878.314,898.092C876.001,897.662 874.88,896.175 874.903,893.865C874.926,891.464 876.5,890.801 878.568,890.753C880.94,890.699 883.218,890.362 885.614,888.564C882.891,887.982 880.745,887.656 878.684,887.046C876.579,886.424 875.194,884.812 875.214,882.641C875.234,880.38 877.045,879.797 879.049,879.563C880.689,879.372 882.294,878.886 884.961,878.302C881.008,878.253 878.777,877.178 878.361,873.94C877.837,869.865 881.746,870.312 883.742,869.178C883.513,866.404 881.774,866.262 880.068,866.382C869.279,867.137 858.502,868.061 847.708,868.727C832.375,869.672 817.615,874.115 802.41,875.898C778.883,878.656 755.298,879.632 731.634,879.444C719.789,879.351 708.151,877.144 696.38,876.317C693.619,876.123 691.163,876.465 688.846,878.515C692.842,878.939 696.597,879.278 700.334,879.761C701.897,879.963 703.317,880.734 703.388,882.533C703.458,884.344 702.174,884.984 700.541,885.412C696.485,886.474 692.477,887.718 687.945,889.035C691.174,890.255 694.117,890.367 696.485,892.042C697.968,893.092 699.774,894.064 699.75,896.165C699.724,898.402 697.656,898.89 696.096,899.807C692.668,901.821 688.468,901.405 684.752,903.169C694.326,913.6 681.172,916.251 678.267,922.347C680.517,923.455 682.543,922.94 684.502,923.027C696.307,923.556 708.077,922.339 719.89,922.354C739.054,922.38 758.061,924.544 777.154,925.408C778.317,925.461 779.847,925.912 780.313,924.665C781.898,920.421 786.223,919.291 789.877,916.454C783.437,917.059 780.782,915.369 781.537,911.723C783.021,904.548 783.026,904.559 790.76,901.559C791.673,901.204 792.505,900.641 794.6,899.519C789.911,900.314 786.55,900.558 784.934,896.999C782.826,892.356 788.448,893.339 789.717,891.137C787.171,887.036 786.907,884.841 789.468,883.823C796.256,881.126 803.171,878.677 810.191,876.674C812.98,875.879 814.326,878.332 814.242,881.025C814.16,883.688 812.555,884.404 810.128,883.758C808.32,883.277 806.542,883.238 804.807,884.095C807.217,884.762 810.351,883.94 810.736,887.541C811.118,891.123 807.681,890.952 805.671,892.026C803.849,892.998 801.809,893.559 799.608,894.4C804.987,897.491 805.181,898.494 801.307,902.659C800.48,903.549 799.593,904.241 800.027,905.616C800.909,908.416 798.447,909.688 797.074,911.629C800.667,915.234 798.839,917.738 795.578,920.221C793.08,922.122 789.77,923.173 787.726,926.908C800.369,928.901 812.388,930.508 824.292,932.728C853.243,938.127 882.919,937.916 911.756,944.37C918.707,945.926 926.305,947.204 933.193,942.95C937.586,940.238 941.999,937.558 947.027,934.5M593.687,609.38C593.609,607.987 593.565,606.578 592.023,605.428C591.027,608.03 590.028,610.277 590.071,613.008C592.059,612.481 593.07,611.51 593.687,609.38Z" style="fill-rule:nonzero;"/>
    <path d="M141.602,843.217C136.496,832.767 137.202,823.036 143.426,813.728C147.023,808.347 152.593,805.052 158.376,803.419C168.443,800.577 173.168,794.342 175.456,784.484C178.623,770.846 180.735,757.308 181.232,743.2C181.786,727.472 180.574,711.915 179.42,696.373C178.89,689.238 176.275,682.045 174.71,674.85C171.73,661.157 171.059,647.205 169.768,633.327C168.133,615.751 167.718,598.127 167.548,580.468C167.378,562.759 172.56,545.985 174.929,528.746C179.107,498.341 191.474,470.628 201.8,442.265C205.459,432.215 207.552,421.341 214.186,412.462C214.977,411.403 215.474,410.087 216.386,409.164C217.33,408.208 218.677,407.538 219.867,408.897C220.755,409.911 220.548,410.983 219.687,412.039C210.018,423.896 208.417,439.167 201.978,452.388C208.405,455.165 209.369,459.978 205.596,465.543C203.431,468.737 203.313,472.732 202.618,477.196C205.944,474.321 207.371,470.545 210.514,468.425C212.563,467.043 214.696,465.159 217.329,466.408C220.122,467.732 219.815,470.596 219.42,473.03C218.578,478.229 217.449,483.383 216.185,489.848C220.218,485.612 223.339,482.278 226.53,479.014C227.686,477.831 228.885,476.602 230.285,475.763C234.45,473.266 238.248,475.2 238.13,480.04C237.98,486.137 237.206,492.219 236.743,497.814C239.936,494.776 243.409,491.489 246.861,488.181C248.121,486.974 249.421,485.961 251.278,486.864C253.059,487.729 253.208,489.359 253.311,491.091C253.538,494.913 252.77,498.669 252.224,503.077C255.751,501.979 257.474,499.481 259.684,497.727C261.475,496.306 262.886,494.257 265.731,495.762C268.666,497.315 268.181,499.821 267.864,502.278C267.696,503.578 267.054,504.821 267.692,506.529C269.372,505.069 270.969,503.711 272.531,502.315C273.564,501.391 274.652,500.565 276.1,501.169C277.676,501.826 278.21,503.252 278.212,504.824C278.219,510.444 276.542,516.017 277.943,521.701C278.292,523.116 277.108,524.158 275.501,524.224C273.475,524.307 272.251,523.047 272.007,521.316C271.601,518.427 271.616,515.479 271.447,512.413C269.142,513.065 268.681,515.125 267.307,516.245C265.881,517.406 264.581,518.918 262.501,517.703C260.663,516.628 260.274,514.862 260.631,512.926C261.166,510.029 261.806,507.151 261.595,503.691C259.471,505.653 257.353,507.623 255.221,509.576C253.609,511.051 251.952,512.739 249.54,511.475C247.147,510.222 246.765,507.781 246.932,505.422C247.167,502.119 247.735,498.839 248.255,494.818C244.335,497.31 242.721,501.003 240.068,503.696C238.242,505.551 236.549,508.242 233.402,506.883C230.008,505.417 230.531,502.1 231.173,499.453C232.599,493.568 233.02,487.677 232.771,481.135C228.398,483.367 226.542,487.502 223.389,490.256C221.264,492.113 219.463,494.334 217.419,496.291C215.926,497.72 214.149,498.895 212.06,497.584C209.968,496.27 209.524,494.217 210.183,491.88C211.583,486.915 213,481.955 214.322,476.969C214.607,475.892 214.518,474.716 214.62,473.343C211.881,473.082 211.003,475.06 209.951,476.573C206.813,481.082 203.762,485.652 200.712,490.222C199.564,491.94 198.372,493.847 195.982,492.775C193.366,491.6 193.23,489.332 194.107,486.826C197.191,478.02 199.812,469.091 201.037,459.807C201.134,459.073 201.163,458.329 201.311,456.533C172.583,523.052 166.108,591.037 177.65,661.157C180.79,659.854 183.413,659.85 183.533,664.707C183.629,668.56 187.694,669.109 189.77,671.339C193.582,675.434 198.426,677.445 204.089,677.268C205.885,677.211 206.955,678.207 207.308,679.809C208.024,683.048 208.633,686.315 209.162,689.591C209.367,690.861 208.762,691.903 207.4,692.213C206.104,692.508 205.006,691.987 204.493,690.819C203.92,689.513 203.626,688.084 203.157,686.53C201.196,689.174 199.893,690.127 196.455,687.676C192.447,684.819 187.091,683.853 181.918,682.6C187.394,689.784 192.375,697.11 197.543,704.055C200.071,704.093 201.374,702.544 202.378,701.196C205.891,696.479 211.151,695.516 216.286,694.172C218.443,693.608 220.047,693.744 219.509,696.631C218.139,703.996 216.629,711.338 215.373,718.722C211.758,739.983 212.632,761.482 212.107,782.906C211.921,790.481 215.354,795.786 221.797,799.656C230.388,804.815 238.332,810.774 244.14,819.222C247.535,824.159 251.565,826.433 258.862,828.479C256.638,830.644 256.638,830.644 244.897,828.02C244.285,830.721 243.737,833.444 243.048,836.13C241.349,842.75 238.106,845.499 231.376,846.296C209.261,848.914 187.084,851.03 165.153,855.082C156.674,856.649 144.933,850.671 141.602,843.217M151.029,845.567C152.708,846.281 154.403,846.958 156.061,847.717C159.502,849.29 161.472,848.74 162.346,844.548C163.156,840.658 164.344,836.849 164.206,832.84C164.123,830.421 165.041,828.556 166.995,827.382C168.436,826.516 169.966,827.245 171.102,828.307C172.961,830.044 171.788,831.899 171.258,833.825C169.968,838.507 167.562,842.954 167.732,848.054C174.497,847.797 175.131,847.144 174.537,841.215C174.421,840.059 174.093,838.927 173.94,837.773C173.63,835.438 174.288,833.79 177.011,833.771C179.608,833.752 180.499,835.168 180.351,837.616C180.183,840.393 179.625,843.22 180.957,846.149C183.443,845.972 185.899,845.843 188.346,845.615C199.844,844.545 199.868,844.528 196.537,833.237C195.889,831.04 195.783,829.156 198.496,828.586C200.953,828.07 202.78,828.901 203.213,831.661C203.547,833.793 204.133,835.928 204.124,838.06C204.103,842.712 206.721,843.12 210.385,842.52C216.939,841.448 223.527,840.579 230.076,839.48C232.323,839.102 235.253,839.014 236.036,836.497C237.623,831.396 239.884,826.223 237.311,820.721C233.595,812.776 225.881,809.328 219.168,804.887C214.723,801.947 211.31,798.446 208.717,793.814C205.762,788.536 206.327,783.097 206.592,777.42C207.119,766.125 206.603,754.808 207.222,743.485C207.53,737.855 209.757,731.544 204.729,726.484C202.674,728.7 201.411,732.29 197.013,728.369C195.439,726.966 190.851,728.904 190.368,724.744C184.715,726.977 185.035,731.585 185.307,736.123C186.353,753.588 183.759,770.593 179.253,787.423C176.578,797.414 173.051,806.434 161.207,808.221C151.15,809.739 147.206,816.976 144.893,825.53C142.868,833.013 144.985,839.622 151.029,845.567M196.894,713.122C191.489,708.71 189.121,701.878 184.033,696.256C182.258,703.423 184.864,709.544 184.691,715.793C185.469,714.395 186.008,713.001 186.465,711.582C187.061,709.728 187.842,707.937 190.203,708.484C192.265,708.963 193.318,710.498 192.556,712.63C192.128,713.828 192.554,714.225 193.33,715.065C196.686,718.698 201.259,717.992 205.08,717.615C210.532,717.076 212.375,711.97 210.873,703.945C207.008,704.461 204.879,707.313 202.884,710.058C201.504,711.957 200.11,713.322 196.894,713.122Z" style="fill-rule:nonzero;"/>
    <path d="M336.218,785.996C335.827,798.466 335.135,810.437 335.141,822.407C335.145,830.847 336.071,839.15 340.061,847.047C343.7,854.249 344.676,862.367 343.093,870.334C342.328,874.187 338.606,876.809 336.533,880.174C333.963,884.343 330.194,884.08 326.082,884.128C322.579,884.169 318.671,883.155 315.635,886.175C314.991,886.817 314.081,886.482 313.31,886.06C308.241,883.287 302.955,883.354 297.59,884.96C296.205,885.374 295.043,885.178 293.78,884.524C290.024,882.58 286.401,880.927 282.434,884.595C280.679,886.219 278.771,884.636 278.402,882.607C277.867,879.662 275.898,878.131 273.806,876.427C268.653,872.229 267.257,866.161 267.911,860.188C268.678,853.19 270.283,846.201 273.862,839.845C277.024,834.23 277.308,827.718 278.528,821.565C280.56,811.319 281.964,800.947 283.56,790.616C286.041,774.553 285.326,758.451 283.835,742.372C281.691,719.234 277.171,696.615 267.707,675.25C263.258,665.207 258.217,655.394 255.013,644.871C251.247,632.504 246.271,620.422 245.558,607.252C245.438,605.04 245.157,603.012 247.683,602.499C250.955,601.835 250.399,604.663 250.609,606.456C252.995,626.887 260.395,645.655 269.08,664.102C275.448,677.632 281.236,691.456 284.303,706.224C284.665,707.972 285.33,709.657 286.033,711.954C287.369,710.163 288.158,708.718 289.303,707.658C291.36,705.754 293.784,704.584 295.074,708.307C296.351,711.992 302.947,711.081 301.157,716.875C307.479,713.997 313.808,717.693 314.08,723.836C314.214,726.856 314.253,729.797 315.671,732.576C316.475,734.15 315.796,735.559 314.47,736.506C312.94,737.599 311.086,736.854 310.512,735.679C309.076,732.735 307.073,731.162 303.828,730.706C302.605,730.534 302.76,728.8 302.404,727.662C297.876,731.323 293.294,726.373 288.367,728.565C289.329,737.149 290.368,746.432 291.502,756.552C298.402,750.793 303.684,756.846 309.568,757.469C318.024,758.363 316.163,766.821 320.396,770.737C321.714,771.956 319.193,773.546 317.628,773.936C315.378,774.496 312.81,775.048 311.799,771.954C311.352,770.586 311.36,769.07 311.127,767.369C309.546,769.052 309.487,771.976 306.666,772.264C304.016,772.535 302.944,770.805 302.41,768.462C300.195,770.459 299.715,775.183 296.254,773.36C292.67,771.47 296.097,768.454 296.892,766.017C297.406,764.438 298.07,762.933 297.843,761.001C292.714,763.573 291.138,767.352 291.138,773.102C291.138,787.922 288.403,802.517 285.898,817.095C284.774,823.642 283.529,830.17 282.454,836.725C282.188,838.348 281.924,840.201 282.437,841.678C283.958,846.048 282.534,848.405 278.385,850.259C275.044,851.751 272.96,860.667 274.805,864.866C275.953,867.479 276.83,870.522 279.71,872.159C281.661,870.662 281.59,868.622 281.656,866.664C281.731,864.423 282.787,863.115 285.062,863.398C287.411,863.689 287.919,865.56 287.612,867.508C287.382,868.96 286.648,870.33 286.15,871.741C285.473,873.66 284.49,875.97 287.493,876.492C289.874,876.905 293.056,878.048 293.998,874.083C294.304,872.795 294.559,871.471 294.619,870.154C294.723,867.851 295.79,866.705 298.095,867.066C300.517,867.446 301.549,868.915 300.925,871.354C300.482,873.09 299.267,874.645 299.676,876.566C303.371,878.183 305.734,878.402 310.176,877.53C310.751,875.066 309.328,873.067 308.511,870.947C307.656,868.732 307.956,866.858 310.278,866.023C312.68,865.158 313.994,866.72 314.766,868.801C314.996,869.42 315.025,870.116 315.272,870.725C316.316,873.301 314.709,877.934 318.358,878.211C322.719,878.542 327.617,878.909 331.407,874.941C338.252,867.776 339.602,860.654 334.099,849.884C330.553,842.943 329.333,835.636 328.935,828.262C328.435,818.992 328.609,809.624 330.331,800.399C331.504,794.114 330.641,787.727 330.418,781.492C329.769,763.384 334.6,746.277 338.412,728.948C339.403,724.443 340.185,719.875 342.265,715.365C336.522,718.514 335.41,717.539 335.442,709.153C333.532,711.783 331.648,714.749 328.634,713.125C324.386,710.836 328.666,706.672 327.336,703.553C326.977,703.595 326.597,703.531 326.36,703.685C324.149,705.124 322.571,708.784 319.257,706.642C316.374,704.779 318.105,701.781 318.687,699.299C319.572,695.518 320.094,691.794 318.744,688.014C317.959,685.817 318.459,683.573 320.744,683.171C323.548,682.676 324.231,685.151 324.334,687.433C324.453,690.069 324.362,692.715 324.362,695.445C330.857,692.856 331.573,693.405 333.097,702.226C336.337,699.872 339.413,697.312 341.829,703.3C342.525,705.026 346.588,704.125 348.562,706.317C349.68,707.56 350.707,708.581 349.996,710.119C347.588,715.331 347.658,721.347 345.598,726.367C342.065,734.976 341.395,744.066 338.916,752.782C335.85,763.564 336.292,774.527 336.218,785.996Z" style="fill-rule:nonzero;"/>
    <path d="M177.503,334.397C183.62,334.083 189.278,333.827 194.938,333.634C199.856,333.466 200.483,332.772 198.798,327.89C196.576,321.45 195.019,314.704 192.33,308.535C187.356,297.119 188.161,285.813 190.873,274.322C194.044,260.886 198.549,247.868 203.895,235.14C204.697,233.232 205.898,231.67 207.993,232.808C210.256,234.037 209.328,236.221 208.681,238.128C205.959,246.147 201.898,253.703 200.033,262.002C197.788,271.991 193.948,281.717 194.506,293.411C196.425,290.179 198.099,288.34 201.35,288.507C203.893,288.638 204.152,285.986 204.53,284.086C205.109,281.173 206.336,279.449 209.632,280.326C211.762,280.894 212.91,279.501 213.344,277.859C214.884,272.03 220.217,270.012 224.293,266.803C226.579,265.003 228.271,266.602 229.419,268.787C231.563,272.867 232.145,277.756 235.852,281.043C236.486,281.604 236.425,282.606 235.81,283.322C234.894,284.388 233.758,284.275 232.634,283.708C230.482,282.623 229.405,280.468 227.828,278.437C226.3,281.34 229.248,285.656 225.234,286.92C221.135,288.21 221.965,283.124 219.485,281.513C217.929,283.546 217.771,286.004 217.258,288.338C216.202,293.132 214.457,293.896 209.73,291.444C209.287,293.892 208.81,296.265 208.436,298.655C208.012,301.373 206.199,302.57 203.496,303.109C203.263,306.217 204.521,310.49 198.709,309.701C199.902,317.195 204.055,323.325 205.157,330.411C205.503,332.642 207.587,332.854 209.518,332.857C237.17,332.895 264.029,338.329 290.729,344.83C292.34,345.222 294.027,345.474 295.159,346.889C295.973,347.908 296.208,348.965 295.222,350.023C294.483,350.817 293.65,351.171 292.556,350.686C277.346,343.948 260.948,342.088 244.828,339.106C233.213,336.958 221.484,336.724 208.854,336.803C211.15,342.305 214.333,346.296 217.338,350.358C218.443,351.851 220.241,351.678 221.96,351.339C233.721,349.023 245.647,347.975 257.557,346.843C262.403,346.382 267.211,347.196 271.977,347.945C274.34,348.316 276.187,349.924 277.661,351.787C278.578,352.945 278.542,354.358 277.689,355.514C276.751,356.787 275.118,356.96 274.136,355.988C267.687,349.603 259.525,351.256 251.887,351.426C242.958,351.624 234.045,352.695 225.132,353.475C223.846,353.588 222.602,354.189 221.131,354.626C221.817,360.189 225.662,360.279 229.544,359.604C236.451,358.402 243.405,357.956 250.383,357.825C254.685,357.744 258.999,357.913 263.297,358.149C264.761,358.23 266.248,358.723 267.629,359.267C269.524,360.014 270.754,361.503 270.049,363.58C269.172,366.162 267.246,365.051 265.487,364.531C253.02,360.846 240.584,362.831 227.212,364.205C235.47,375.295 245.11,383.748 253.182,393.74C243.552,391.187 238.974,381.769 230.199,376.955C222.276,397.047 229.728,416.877 231.388,436.695C228.171,437.624 227.411,435.435 227.115,433.576C224.046,414.296 219.352,395.068 225.194,375.465C226.93,369.637 222.92,365.281 216.849,366.377C200.683,369.296 184.707,373.115 168.804,377.196C153.515,381.119 138.334,385.462 123.07,389.487C108.403,393.355 95.124,399.337 86.4,412.586C84.593,415.331 83.196,418.298 80.743,420.669C79.006,422.348 77.672,422.421 76.042,421.006C74.308,419.501 72.713,417.501 74.64,415.449C84.724,404.711 93.966,392.962 109.167,388.634C125.637,383.944 142.085,379.188 158.718,375.11C177.411,370.526 195.978,365.372 215.044,362.429C215.799,362.312 216.474,361.675 217.374,361.176C216.348,356.154 213.18,354.802 208.614,355.401C194.941,357.194 181.284,359.146 167.579,360.659C155.028,362.044 142.392,362.668 129.849,364.11C111.036,366.273 92.097,367.927 74.086,374.467C70.652,375.714 68.46,377.541 71.566,381.44C68.845,383.78 66.177,383.922 64.042,381.402C61.731,378.675 63.159,376.137 65.408,373.966C69.97,369.562 76.015,368.434 81.762,367.021C96.326,363.443 111.256,362.059 126.153,360.767C153.966,358.356 181.87,356.897 209.489,352.537C209.948,352.464 210.37,352.151 210.791,351.958C208.696,342.141 202.564,337.1 193.16,337.175C182.188,337.263 171.332,339.223 160.401,339.411C144.764,339.679 129.376,342.277 113.858,343.6C110.274,343.906 106.788,345.431 103.275,346.456C102.326,346.733 100.946,347.294 101.211,348.295C102.043,351.442 100.503,352.334 97.885,352.116C95.437,351.913 93.258,350.959 92.881,348.125C92.521,345.422 93.965,343.728 96.365,342.72C100.397,341.027 104.639,340.155 108.955,339.748C131.622,337.612 154.296,335.561 177.503,334.397Z" style="fill-rule:nonzero;"/>
    <path d="M543.064,354.671C554.998,356.719 566.169,359.959 577.179,363.781C578.943,364.393 580.724,364.533 582.547,364.722C584.22,364.895 585.086,366.189 585.327,367.819C585.538,369.243 585.098,370.451 583.942,371.355C582.73,372.303 581.438,372.249 580.225,371.451C569.376,364.322 556.779,362.341 544.512,359.569C530.818,356.475 516.808,355.918 502.844,356.402C488.56,356.896 474.324,358.39 460.13,360.175C456.834,360.589 454.547,362.04 453.057,364.931C446.062,378.5 433.72,386.137 421.077,393.254C413.548,397.492 405.58,400.951 397.82,404.783C396.005,405.679 394.223,406.722 392.212,405.364C391.138,404.639 390.728,403.645 391.21,402.339C392.059,400.042 393.904,399.693 396.038,399.634C399.363,399.543 401.896,397.4 404.734,396.059C417.1,390.217 429.107,383.819 439.448,374.655C443.028,371.483 445.343,367.611 447.563,363.039C444.064,362.274 440.982,363.097 438.106,363.798C423.903,367.26 409.421,369.83 396.053,376.141C394.624,376.816 393.141,377.541 392.195,375.69C391.147,373.64 392.711,372.512 394.23,371.812C401.8,368.322 409.653,365.632 417.768,363.687C427.619,361.326 437.404,358.676 447.461,357.266C450.113,356.895 452.084,355.686 453.097,353.012C454.441,349.463 455.975,345.986 457.799,341.583C449.802,342.515 442.805,344.439 436.025,346.685C421.324,351.556 406.778,356.936 393.914,365.898C392.412,366.944 390.939,367.701 389.557,365.951C388.165,364.188 389.2,362.737 390.657,361.737C393.259,359.95 395.865,358.096 398.686,356.712C417.127,347.666 436.357,340.851 456.492,336.67C458.592,336.234 460.847,336.002 461.168,332.534C455.695,331.77 450.507,333.569 445.611,334.733C427.767,338.973 410.486,345.054 394.223,353.675C390.272,355.769 386.721,358.61 382.939,361.036C381.359,362.049 379.404,364.193 377.849,361.729C376.45,359.513 378.948,358.214 380.468,357.062C386.467,352.517 393.02,348.779 399.894,345.866C413.811,339.969 428.047,334.843 442.674,330.961C448.116,329.517 453.763,328.865 459.266,327.626C462.72,326.847 462.677,326.658 463.506,322.207C461.027,321.987 459.052,320.962 457.357,318.908C455.486,316.642 452.855,315.103 449.614,315.48C448.326,315.63 447.118,315.28 446.605,314.168C445.727,312.266 444.88,311.673 442.426,311.632C439.362,311.581 439.482,308.201 439.626,305.044C437.341,306.69 435.934,310.511 432.764,307.369C429.517,304.152 422.132,303.752 425.338,296.13C426.222,294.029 426.238,291.58 426.891,289.36C427.423,287.551 428.598,286.181 431.539,285.865C431.199,290.797 435.644,292.492 438.215,295.646C440.109,297.969 443.332,297.982 445.773,299.291C448.251,300.619 450.93,301.381 452.812,303.75C453.168,304.198 454.003,304.37 454.647,304.468C460.263,305.315 464.575,307.237 463.488,314.251C463.488,307.297 464.49,300.147 463.188,293.446C462.035,287.511 459.85,281.669 458.823,275.605C456.996,264.812 451.785,255.33 447.247,245.584C446.338,243.632 445.771,241.675 448.356,240.566C451.012,239.427 451.838,240.995 452.386,243.305C453.846,249.468 456.441,255.085 459.417,260.747C462.772,267.128 463.296,274.756 465.22,281.781C467.954,291.762 469.575,301.74 469.729,312.115C469.794,316.458 469.252,320.666 468.83,325.207C473,325.953 476.886,324.732 480.774,324.486C497.719,323.413 514.696,322.319 531.643,322.919C546.221,323.436 560.871,323.563 575.374,325.688C577.636,326.019 579.471,326.624 579.453,329.072C579.435,331.457 577.734,332.714 575.393,332.363C572.12,331.872 568.996,333.773 565.44,330.068C562.992,327.518 556.603,328.572 551.959,328.34C531.332,327.308 510.694,327.786 490.069,328.391C483.785,328.576 477.519,329.613 471.267,330.425C469.594,330.642 467.463,330.826 467.511,333.923C475.271,333.412 482.953,332.935 490.629,332.397C512.49,330.863 534.157,332.786 555.76,335.957C560.19,336.607 564.631,337.206 569.084,337.662C571.261,337.886 573.23,338.191 573.121,340.923C573.003,343.866 570.791,344.047 568.489,344.243C565.667,344.484 564.231,341.773 561.712,341.393C531.984,336.907 502.165,335.065 472.224,338.848C463.754,339.918 460.486,344.25 459.187,354.914C487.076,352.181 514.877,349.37 543.064,354.671Z" style="fill-rule:nonzero;"/>
    <path d="M281.757,185.748C274.908,186.018 269.914,190.577 263.782,192.197C265.954,189.014 268.511,186.265 271.891,184.788C275.055,183.406 274.849,181.684 273.43,179.343C271.618,176.353 269.775,173.382 267.944,170.403C267.097,169.024 266.469,167.016 264.322,167.881C262.36,168.672 261.067,170.309 261.456,172.627C261.862,175.049 262.938,177.412 261.786,180.188C258.037,178.937 261.47,171.043 253.736,173.375C258.429,168.034 255.24,164.437 252.871,160.825C251.509,158.748 249.836,156.846 248.13,155.028C241.265,147.714 241.248,147.75 232.803,153.101C231.482,153.938 230.276,155.451 228.013,154.117C229.197,149.842 234.824,149.647 236.094,145.411C234.169,142.487 231.135,140.789 228.281,138.784C223.983,135.763 222.855,141.298 219.84,141.786C218.419,138.854 221.97,137.769 221.858,135.477C221.229,133.545 218.304,133.433 218.242,131.076C219.05,129.049 220.694,129.237 222.035,129.822C226.454,131.751 226.641,128.631 227.251,125.756C228.239,121.099 226.006,118.486 222.543,115.454C209.579,104.104 205.361,109.186 201.244,122.739C195.894,140.353 197.393,157.471 201.62,174.838C203.976,184.514 205.829,194.314 207.891,204.061C209.127,209.906 208.126,215.66 207.088,221.401C206.93,222.28 206.334,222.851 205.354,222.884C203.691,222.369 203.557,220.907 203.761,219.638C205.873,206.531 200.944,194.372 198.757,181.85C197.13,172.529 195.093,163.269 193.776,153.906C192.05,141.642 194.478,129.768 198.286,118.131C198.7,116.865 199.096,115.592 199.477,114.315C202.8,103.185 212.211,100.722 221.167,108.42C229.352,115.455 237.564,122.296 244.806,130.492C250.567,137.012 254.646,144.528 260.041,151.2C265.57,158.038 270.225,165.605 274.997,173.024C277.619,177.101 279.247,179.962 285.845,179.155C299.537,177.482 312.88,181.514 325.73,186.362C332.717,188.997 339.39,192.551 346.491,194.775C361.923,199.609 369.931,196.002 377.299,181.559C378.34,179.516 379.131,177.919 381.756,177.567C383.762,177.298 384.864,175.194 386.324,173.853C398.218,162.937 409.676,151.117 425.766,146.604C435.887,143.766 445.658,140.128 455.468,136.504C458.654,135.327 460.986,136.154 462.72,138.947C466.142,144.456 466.895,150.485 465.739,156.721C462.104,176.33 458.66,195.951 457.167,215.882C456.71,221.974 453.866,227.679 453.201,233.847C452.991,235.793 451.155,237.446 448.736,236.682C446.781,236.064 446.252,234.223 447.096,232.597C453.46,220.346 453.313,206.874 454.494,193.669C455.576,181.571 458.806,169.826 460.137,157.777C460.355,155.799 460.788,153.792 460.639,151.835C460.042,144.021 458.208,139.205 449.101,144.011C442.516,147.486 435.169,149.24 427.815,150.886C418.61,152.947 407.165,160.566 397.806,169.61C398.52,171.083 399.278,172.646 400.01,174.154C401.746,174.426 402.77,173.584 403.425,172.371C404.433,170.504 405.744,170.072 407.909,170.224C412.027,170.512 415.728,169.728 417.245,164.869C418.17,161.903 420.259,160.694 422.744,163.601C426.126,167.557 429.005,163.28 432.106,163.065C434.309,162.912 436.116,161.456 435.873,158.659C435.697,156.629 435.48,154.281 438.455,154.321C440.996,154.355 441.756,156.147 441.489,158.507C441.441,158.934 441.751,159.402 441.901,159.87C443.943,160.166 445.935,159.123 447.856,160.022C449.97,164 450.06,168.157 448.957,172.421C444.729,188.767 446.685,206.302 439.41,222.052C438.972,222.999 438.002,223.456 435.824,222.555C440.242,203.972 441.804,184.744 444.199,165.244C442.733,166.306 443.752,168.3 442.006,168.631C437.605,165.332 427.97,166.064 423.599,169.918C421.144,172.082 423.345,174.247 423.471,176.399C423.565,178.008 425.74,180.145 422.894,180.962C420.735,181.581 419.881,179.394 419.168,177.675C418.476,176.008 418.47,174.046 417.04,172.707C407.25,172.23 409.827,180.151 409.138,185.443C406.076,185.327 406.095,183.442 405.718,181.895C405.325,180.28 405.154,178.223 402.835,178.69C401.016,179.055 400.26,180.73 400.359,182.564C400.492,185.049 400.72,187.531 400.973,190.007C401.102,191.267 401.031,192.346 399.477,192.849C396.407,191.281 397.788,187.297 395.484,185.153C390.951,186.238 389.473,191.607 385.137,192.981C380.443,188.274 390.628,185.71 385.979,180.521C381.266,186.162 375.285,190.341 371.711,196.636C372.962,199.272 377.547,200.194 375.308,203.69C373.277,206.86 371.388,203.123 369.194,202.724C366.714,205.091 362.528,205.664 361.394,210.31C364.744,211.622 363.498,214.017 363.353,217.159C363.07,223.26 361.941,229.393 362.797,235.607C364.369,247.006 359.971,257.48 357.783,268.158C355.231,268.317 354.77,266.938 354.825,265.619C355.03,260.744 353.575,255.945 355.823,250.941C357.676,246.816 353.79,242.517 354.121,238.036C354.193,237.071 353.489,235.888 353.842,235.13C355.76,231.011 354.778,227.534 353.645,223.177C352.507,218.802 355.74,213.4 356.546,208.367C357.004,205.508 357.712,203.257 361.316,202.085C356.92,200.058 352.882,200.649 349.081,199.984C339.885,198.374 332.167,193.089 323.579,189.991C313.06,186.198 302.427,182.932 291.057,183.276C287.906,183.371 284.771,183.636 281.757,185.748M242.51,139.912C243.325,138.991 243.987,137.879 243.159,136.791C240.407,133.171 237.931,129.282 234.392,126.386C227.689,131.985 227.716,134.275 234.213,138.735C235.298,139.48 236.538,140.048 237.488,140.932C239.323,142.64 240.717,142.004 242.51,139.912M253.837,150.643C251.7,147.93 249.563,145.217 247.473,142.563C245.403,143.16 244.175,144.052 244.005,146.33C247.397,148.558 249.834,151.903 252.464,155.069C255.063,158.196 256.493,162.212 259.621,164.999C261.959,163.292 261.709,161.564 260.367,159.701C258.33,156.874 256.311,154.035 253.837,150.643M394.692,177.192C394.575,176.109 395.083,174.853 393.856,174.07C389.137,176.784 389.137,176.784 391.954,180.559C393.175,179.98 394.195,179.209 394.692,177.192Z" style="fill-rule:nonzero;"/>
    <path d="M280.797,457.184C285.453,461.132 287.556,466.65 291.573,470.691C293.479,472.609 294.704,472.77 297.074,471.411C302.837,468.108 308.637,464.891 314.252,461.324C316.285,460.032 318.946,459.022 321.297,459.068C329.815,459.235 337.159,455.539 344.672,452.496C352.39,449.371 360.563,447.129 367.901,443.438C382.393,436.149 397.901,430.671 410.803,420.327C417.774,414.737 425.923,410.537 430.179,402.023C431.427,399.526 433.419,397.449 434.017,394.543C434.402,392.672 435.532,390.947 437.873,391.666C440.146,392.365 440.729,394.254 440.367,396.478C440.313,396.806 440.319,397.193 440.143,397.445C436.248,403.022 433.326,409.84 428.214,413.89C417.187,422.626 405.923,431.219 393.077,437.456C374.052,446.692 354.186,453.846 334.655,461.831C333.895,462.142 333.051,462.418 332.246,462.419C319.692,462.42 310.009,469.308 300.133,475.742C299.156,476.378 298.167,476.998 297.193,477.639C293.927,479.788 291.151,479.003 288.92,476.071C286.415,472.78 283.863,469.497 281.687,465.99C276.581,457.765 267.837,454.314 260.299,449.271C259.884,448.994 259.449,448.742 259.004,448.516C257.172,447.584 255.469,446.49 255.238,444.227C255.132,443.183 255.687,442.215 256.737,441.868C259.261,441.034 260.627,442.823 262.301,444.253C265.462,446.956 268.801,449.436 272.764,450.96C275.913,452.17 278.771,453.871 280.797,457.184Z" style="fill-rule:nonzero;"/>
    <path d="M308.41,396.984C305.489,397.033 302.995,397.044 300.506,396.946C295.759,396.759 289.961,390.811 289.96,386.128C289.959,384.431 290.925,383.263 292.5,382.831C294.457,382.294 296.163,383.396 296.297,385.108C296.79,391.361 302.077,392.346 305.918,392.07C311.333,391.681 317.162,390.038 320.048,384.159C320.597,383.04 321.063,381.826 320.046,380.935C313.265,374.991 314.969,366.269 312.828,358.827C312.436,357.465 312.358,356.532 310.92,355.879C309.464,355.218 308.67,353.861 309.459,352.159C310.168,350.63 311.616,349.665 313.097,350.161C317.759,351.726 323.133,352.077 326.451,356.288C328.79,359.258 331.396,359.138 334.437,358.132C337.433,357.142 340.394,355.996 343.453,355.264C347.386,354.325 350.649,357.243 349.656,361.138C347.719,368.739 344.499,375.526 336.147,378.264C333.673,379.075 331.398,380.492 328.641,381.82C331.794,387.95 336.933,390.664 342.723,391.316C348.861,392.007 355.078,392.618 361.277,389.88C366.133,387.734 367.806,384.517 367.439,379.814C367.276,377.731 366.985,375.776 368.678,374.309C369.745,373.385 370.87,374.099 371.809,374.873C373.769,376.491 373.343,378.628 373.314,380.821C373.215,388.419 368.258,393.034 363.324,397.716C362.323,398.666 361.077,399.777 359.827,399.078C354.39,396.044 348.41,397.43 342.702,396.761C336.748,396.062 331.356,394.215 326.829,390.279C324.861,388.567 323.286,388.066 321.389,390.273C318.091,394.11 313.658,395.891 308.41,396.984M319.021,359.218C319.175,362.654 318.983,366.149 319.556,369.514C320.68,376.117 323.865,377.75 330.16,375.379C332.483,374.504 334.841,373.684 337.065,372.597C341.452,370.451 344.588,364.929 343.911,360.559C340.282,360.842 336.929,362.131 333.573,363.408C329.873,364.817 326.619,364.919 323.829,361.307C322.846,360.034 321.849,357.637 319.021,359.218Z" style="fill-rule:nonzero;"/>
    <path d="M259.9,257.982C262.663,259.602 265.246,260.749 267.988,261.496C274.758,263.342 280.558,267.299 284.602,272.541C289.216,278.523 292.626,285.577 294.577,293.085C296.909,302.059 291.452,308.945 282.248,309.276C268.278,309.78 260.682,300.348 252.163,291.458C243.56,282.479 246.901,273.347 250.393,264.333C251.596,261.226 255.722,259.032 259.9,257.982M252.745,273.568C251.175,278.319 252.808,282.331 255.6,286.097C261.51,294.069 267.859,301.44 278.112,303.992C285.569,305.847 290.179,301.84 289.262,294.136C288.697,289.392 286.363,285.437 283.692,281.035C282.059,285.095 280.149,289.418 276.269,289.443C272.512,289.468 269.759,285.704 268.09,282.136C265.625,276.865 269.071,273.801 272.977,271.107C261.763,263.29 257.319,263.129 252.745,273.568Z" style="fill-rule:nonzero;"/>
    <path d="M201.175,567.871C201.377,566.972 201.485,566.359 201.787,564.655C199.661,567.694 198.246,569.885 196.654,571.938C195.473,573.459 193.921,574.419 191.852,573.648C189.599,572.808 188.762,570.812 189.133,568.829C190.442,561.817 191.973,554.843 193.619,547.902C194.227,545.338 196.264,543.567 198.837,544.716C202.032,546.144 199.585,548.222 198.771,550.067C197.309,553.38 196.425,556.837 196.356,560.783C200.238,559.028 199.846,552.57 205.192,553.521C207.728,553.973 207.272,556.572 207.418,558.926C211.262,557.479 212.915,551.566 217.722,554.065C220.816,555.672 218.514,558.89 218.886,561.498C222.153,560.285 224.188,555.712 228.197,557.237C232.244,558.775 231.053,563.094 231.493,566.869C234.196,565.512 235.426,563.253 237.221,561.648C238.515,560.49 240.015,559.714 241.766,560.519C243.279,561.215 243.81,562.638 243.957,564.202C244.424,569.187 243.139,574.383 246.823,578.942C247.941,580.326 246.002,582.458 244.086,582.945C241.228,583.671 239.695,581.785 238.954,579.385C238.149,576.775 239.142,573.751 237.235,571.174C234.439,572.556 233.28,575.198 231.68,577.464C230.464,579.187 228.767,580.547 226.611,579.768C224.171,578.886 223.923,576.728 224.325,574.35C224.786,571.624 225.011,568.858 225.445,565.216C221.742,567.479 221.031,570.753 219.257,573.205C218.219,574.639 217.23,576.654 214.992,575.871C212.858,575.125 212.145,573.127 212.267,570.997C212.409,568.515 212.777,566.045 213.116,562.941C210.416,564.776 209.798,567.359 208.524,569.459C207.566,571.039 206.645,572.864 204.398,572.423C202.205,571.993 200.945,570.545 201.175,567.871Z" style="fill-rule:nonzero;"/>
    <path d="M368.104,312.666C365.431,308.514 365.394,305.216 368.166,301.003C371.98,295.205 374.722,288.777 379.675,283.625C384.512,278.595 390.587,276.923 397.013,275.723C397.494,275.634 398.012,275.692 398.507,275.74C410.297,276.881 419.399,293.678 413.759,303.953C413.053,305.239 412.208,306.621 411.064,307.465C402.143,314.044 392.257,318.133 381.02,318.049C376.25,318.014 371.861,316.441 368.104,312.666M397.559,283.325C401.035,286.718 401.064,290.653 399.188,294.761C397.151,299.221 392.955,299.933 388.748,300.207C386.006,300.386 384.309,298.929 384.555,295.948C384.862,292.24 384.443,288.395 386.775,285.017C379.64,289.476 375.831,296.237 373.219,303.624C371.035,309.803 373.776,313.085 380.305,313.2C388.318,313.342 395.626,311.323 402.533,307.15C408.664,303.446 411.817,298.294 410.213,293.101C408.524,287.636 398.649,281.057 392.908,281.961C394.553,282.349 395.772,282.636 397.559,283.325Z" style="fill-rule:nonzero;"/>
    <path d="M300.135,677.152C300.195,678.42 300.271,679.254 300.223,680.08C300.143,681.466 299.865,682.847 298.135,682.962C296.458,683.072 295.886,681.752 295.514,680.445C295.063,678.862 294.749,677.241 294.129,674.578C292.333,682.521 286.327,678.065 282.433,679.69C282.07,679.842 280.574,678.542 280.459,677.786C280.121,675.566 279.534,674.141 277.33,672.724C274.575,670.954 276.897,659.251 279.847,657.702C281.528,656.819 283.215,657.364 283.64,658.807C285.065,663.639 289.427,664.711 293.064,665.228C298.107,665.944 299.527,668.338 299.449,672.789C299.427,674.094 299.867,675.406 300.135,677.152Z" style="fill-rule:nonzero;"/>
    <path d="M234.025,315.074C234.817,316.56 235.269,317.899 236.161,318.801C237.712,320.37 238.994,321.861 237.057,323.859C234.917,326.067 233.19,324.647 231.589,322.974C231.254,322.624 230.944,322.249 230.535,321.785C229.406,326.749 226.793,327.286 223.016,324.279C221.555,326.474 223.27,330.296 219.726,330.953C216.541,331.543 215.369,328.755 214.015,326.112C213.419,327.587 213.142,328.724 212.546,329.658C210.857,332.308 208.911,332.06 207.748,329.398C206.681,326.952 206.044,323.743 208.508,322.012C211.137,320.165 210.794,313.344 216.703,316.767C218.356,317.725 218.042,315.949 218.589,315.437C220.181,313.946 222.019,313.062 223.997,314.195C225.75,315.199 226.604,314.423 227.834,313.372C230.316,311.251 232.386,311.948 234.025,315.074Z" style="fill-rule:nonzero;"/>
    <path d="M317.824,225.19C319.363,229.377 320.163,233.214 320.085,237.499C320.01,241.639 321.298,245.854 322.349,249.943C322.827,251.8 323.991,253.631 321.389,254.381C319.095,255.043 316.913,253.538 317.143,251.398C317.831,245.002 312.033,241.121 311.326,235.804C310.515,229.702 308.191,223.104 312.108,216.993C313.451,214.898 314.43,212.572 315.726,210.443C316.864,208.572 318.633,208.221 320.46,209.33C322.118,210.337 322.203,211.67 321.438,213.591C319.987,217.234 319.026,221.072 317.824,225.19Z" style="fill-rule:nonzero;"/>
    <path d="M334.347,304.321C329.202,311.537 326.769,319.838 321.627,326.699C317.551,332.137 311.679,335.477 307.161,340.35C305.866,341.747 303.615,341.922 302.207,340.42C300.857,338.981 302.078,337.486 303.394,336.727C316.782,328.995 323.789,316.211 330.409,303.049C332.569,298.754 335.067,294.608 337.7,290.583C338.794,288.911 340.494,286.448 342.892,288.23C345.526,290.186 343.144,291.825 341.829,293.525C339.225,296.89 337.598,300.945 334.347,304.321Z" style="fill-rule:nonzero;"/>
    <path d="M215.41,162.581C216.779,175.161 217.581,187.343 220.82,199.703C213.358,195.997 207.096,148.067 212.541,137.631C216.609,145.89 214.589,154.198 215.41,162.581Z" style="fill-rule:nonzero;"/>
    <path d="M352.41,348.594C350.397,337.264 341.96,328.105 342.766,316.324C343.263,309.058 345.595,302.033 345.846,294.712C345.896,293.262 346.541,292.071 348.368,292.507C350.234,292.953 350.635,294.364 350.308,295.978C349.287,301.012 348.291,306.056 347.071,311.044C345.459,317.637 346.11,323.936 349.374,329.841C351.964,334.527 353.628,339.55 355.423,344.541C356.352,347.127 356.614,349.258 352.41,348.594Z" style="fill-rule:nonzero;"/>
    <path d="M374.099,852.017C367.764,850.337 361.815,848.807 355.885,847.204C353.95,846.681 351.534,846.042 352.363,843.392C353.292,840.425 355.636,841.445 357.734,842.259C368.895,846.586 380.617,848.889 392.193,851.708C393.788,852.096 395.519,851.995 396.536,853.586C394.464,857.932 392.186,856.899 374.099,852.017Z" style="fill-rule:nonzero;"/>
</svg>
